<svg width="71" height="68" viewBox="0 0 71 68" fill="none" xmlns="http://www.w3.org/2000/svg">
<path d="M59.8234 0C63.9829 0 67.3376 3.2215 67.5358 7.0125V68L59.6164 61.5598L55.2676 57.7688L50.5224 53.8078L52.5045 60.0553H10.9754C6.82786 60.0553 3.46127 57.0378 3.46127 53.04V7.02667C3.46127 3.23567 6.83377 0.0085 10.9902 0.0085H59.8027L59.8234 0ZM41.7244 16.1018H41.6356L41.038 16.6685C47.1707 18.3685 50.1379 21.0233 50.1379 21.0233C46.1855 19.1307 42.6237 18.1843 39.0619 17.8018C36.4881 17.4193 33.9144 17.6205 31.74 17.8018H31.1483C29.7579 17.8018 26.7996 18.3685 22.8354 19.8843C21.4539 20.4595 20.661 20.8363 20.661 20.8363C20.661 20.8363 23.6253 17.9973 30.1573 16.4815L29.7579 16.099C29.7579 16.099 24.8116 15.9177 19.4718 19.6973C19.4718 19.6973 14.132 28.6053 14.132 39.5873C14.132 39.5873 17.0903 44.5173 25.205 44.7043C25.205 44.7043 26.3884 43.1942 27.5865 41.8653C23.0306 40.5393 21.2556 37.8873 21.2556 37.8873C21.2556 37.8873 21.6521 38.0743 22.2467 38.454H22.4242C22.5129 38.454 22.5544 38.4965 22.6017 38.539V38.556C22.649 38.6013 22.6904 38.641 22.7792 38.641C23.7554 39.0263 24.7317 39.406 25.5304 39.7743C26.909 40.3467 28.6811 40.9162 30.8554 41.293C33.6067 41.6755 36.7603 41.8597 40.3517 41.293C42.1267 40.9105 43.9017 40.5365 45.6767 39.7772C46.8304 39.2105 48.2504 38.6438 49.8095 37.689C49.8095 37.689 48.0345 40.341 43.2864 41.667C44.2626 42.9873 45.6382 44.5003 45.6382 44.5003C53.7559 44.3303 56.9095 39.4003 57.087 39.61C57.087 28.645 51.7176 19.72 51.7176 19.72C46.8807 16.2803 42.3545 16.15 41.5557 16.15L41.7214 16.0933L41.7244 16.1018ZM42.2214 28.6053C44.3011 28.6053 45.9784 30.3053 45.9784 32.3878C45.9784 34.4845 44.2922 36.1845 42.2214 36.1845C40.1505 36.1845 38.4643 34.4845 38.4643 32.4048C38.4702 30.3082 40.1594 28.6138 42.2214 28.6138V28.6053ZM28.7817 28.6053C30.8525 28.6053 32.5269 30.3053 32.5269 32.3878C32.5269 34.4845 30.8407 36.1845 28.7698 36.1845C26.699 36.1845 25.0127 34.4845 25.0127 32.4048C25.0127 30.3082 26.699 28.6138 28.7698 28.6138L28.7817 28.6053Z" fill="black"/>
</svg>
