<svg width="61" height="61" viewBox="0 0 61 61" fill="none" xmlns="http://www.w3.org/2000/svg">
<path d="M30.5 0C13.6565 0 0 13.6565 0 30.5C0 43.9778 8.73825 55.4078 20.8589 59.44C22.3835 59.7192 22.9402 58.7772 22.9402 57.973C22.9402 57.247 22.9122 54.8419 22.8973 52.2953C14.416 54.1382 12.6233 48.6987 12.6233 48.6987C11.2346 45.1766 9.23709 44.2384 9.23709 44.2384C6.46523 42.347 9.44737 42.3843 9.44737 42.3843C12.5096 42.5965 14.1219 45.5266 14.1219 45.5266C16.8435 50.188 21.2628 48.8402 22.9978 48.0583C23.2751 46.0925 24.0644 44.7447 24.9339 43.9852C18.1633 43.2146 11.041 40.5972 11.041 28.9102C11.041 25.5779 12.2306 22.8601 14.1777 20.7249C13.8668 19.9505 12.8169 16.8472 14.4793 12.6494C14.4793 12.6494 17.0371 11.8303 22.8675 15.7768C25.2987 15.0974 27.9068 14.7623 30.4999 14.7511C33.0912 14.7623 35.7011 15.1011 38.1361 15.7805C43.9554 11.8303 46.517 12.6531 46.517 12.6531C48.1849 16.8546 47.135 19.9541 46.8223 20.7249C48.7769 22.8601 49.9572 25.578 49.9572 28.9102C49.9572 40.6269 42.8236 43.2071 36.0289 43.9629C37.1273 44.9086 38.099 46.7627 38.099 49.6072C38.099 53.684 38.058 56.9715 38.058 57.9768C38.058 58.7884 38.6127 59.7378 40.1578 59.44C52.2693 55.4004 61 43.9703 61 30.5C61 13.6565 47.3435 0 30.5 0Z" fill="black"/>
</svg>
