<svg width="64" height="12" viewBox="0 0 64 12" fill="none" xmlns="http://www.w3.org/2000/svg">
<path d="M6.032 0C2.704 0 0 2.639 0 5.8955C0 9.152 2.704 11.791 6.032 11.791C9.3665 11.791 12.064 9.152 12.064 5.8955C12.064 2.639 9.3665 0 6.032 0ZM31.85 0C28.5155 0 25.818 2.639 25.818 5.8955C25.818 9.152 28.522 11.791 31.85 11.791C35.1845 11.791 37.882 9.152 37.882 5.8955C37.882 2.639 35.1845 0 31.85 0ZM57.668 0C54.3335 0 51.636 2.639 51.636 5.8955C51.636 9.152 54.34 11.791 57.668 11.791C61.0025 11.791 63.7 9.152 63.7 5.8955C63.7 2.639 60.996 0 57.668 0Z" fill="#4D008C"/>
</svg>
