<svg width="59" height="59" viewBox="0 0 59 59" fill="none" xmlns="http://www.w3.org/2000/svg">
<path d="M29.5018 0.0946045C13.4292 0.0946045 0.399841 13.1264 0.399841 29.1965C0.399841 45.269 13.4292 58.2961 29.5018 58.2961C45.5743 58.2961 58.6013 45.269 58.6013 29.1965C58.6013 13.1264 45.5731 0.0946045 29.5018 0.0946045ZM44.1608 23.3289C44.1762 23.6432 44.1821 23.9588 44.1821 24.2779C44.1821 33.9698 36.8053 45.1438 23.3162 45.1438C19.1752 45.1438 15.3189 43.9301 12.0737 41.8501C12.6481 41.9174 13.2307 41.9517 13.8228 41.9517C17.2595 41.9517 20.422 40.7794 22.9309 38.8129C19.7223 38.7526 17.0148 36.6312 16.0812 33.7181C16.5279 33.8056 16.9876 33.8493 17.4604 33.8493C18.1293 33.8493 18.7769 33.7618 19.3926 33.5928C16.0363 32.9192 13.5084 29.9529 13.5084 26.4027C13.5084 26.3708 13.5084 26.3401 13.5096 26.3082C14.4976 26.8577 15.6286 27.1875 16.8316 27.2265C14.8628 25.9087 13.5687 23.6669 13.5687 21.1213C13.5687 19.7775 13.9303 18.5166 14.5614 17.434C18.1789 21.8705 23.5833 24.7908 29.679 25.0957C29.5538 24.5603 29.4888 23.9989 29.4888 23.4246C29.4888 19.3757 32.7718 16.0915 36.823 16.0915C38.9326 16.0915 40.8376 16.9826 42.1754 18.4067C43.8465 18.0793 45.4159 17.4671 46.8329 16.6269C46.2834 18.3405 45.1217 19.7775 43.6066 20.684C45.0921 20.5067 46.5055 20.112 47.8197 19.5294C46.8388 21.0031 45.5944 22.2948 44.1608 23.3289Z" fill="black"/>
</svg>
